<svg id="Layer_1" data-name="Layer 1" xmlns="http://www.w3.org/2000/svg" viewBox="0 0 300 300"><defs><style>.cls-1{fill:#fff;}</style></defs><path d="M306.07,306.07A150,150,0,1,1,350,200,149.51,149.51,0,0,1,306.07,306.07Z" transform="translate(-50 -50)"/><path class="cls-1" d="M200,182.48a40.58,40.58,0,1,0-40.58-40.59A40.64,40.64,0,0,0,200,182.48Zm61.2,26.43A54,54,0,0,0,222.87,193H177.12a54.18,54.18,0,0,0-54.19,54.19v37.64c21.64,8.68,48.27,13.82,77.07,13.81s55.43-5.13,77.07-13.81V247.23A54,54,0,0,0,261.2,208.91Z" transform="translate(-50 -50)"/></svg>